<?xml version="1.0" encoding="utf-8"?>
<!-- Generator: Adobe Illustrator 12.0.0, SVG Export Plug-In . SVG Version: 6.00 Build 51448)  -->
<!DOCTYPE svg PUBLIC "-//W3C//DTD SVG 1.1//EN" "http://www.w3.org/Graphics/SVG/1.1/DTD/svg11.dtd" [
	<!ENTITY ns_svg "http://www.w3.org/2000/svg">
	<!ENTITY ns_xlink "http://www.w3.org/1999/xlink">
]>
<svg  version="1.1" id="Layer_1" xmlns="&ns_svg;" xmlns:xlink="&ns_xlink;" width="500" height="530.789"
	 viewBox="0 0 500 530.789" overflow="visible" enable-background="new 0 0 500 530.789" xml:space="preserve">
<g>
	<rect y="30.789" fill="#4ABCF4" width="500" height="500"/>
	<g>
		<defs>
			<rect id="XMLID_1_" y="30.789" width="500" height="500"/>
		</defs>
		<clipPath id="XMLID_15_">
			<use xlink:href="#XMLID_1_" />
		</clipPath>
		<path clip-path="url(#XMLID_15_)" fill="#26A0DD" d="M415.533,309.652c-0.044-0.021-0.083-0.041-0.132-0.06
			c-0.037-0.014-0.081-0.026-0.121-0.04c-0.081-0.027-0.166-0.055-0.259-0.08c-0.039-0.01-0.082-0.02-0.124-0.029
			c-0.103-0.024-0.21-0.048-0.326-0.069c-0.051-0.01-0.104-0.019-0.159-0.027c-0.06-0.01-0.113-0.021-0.176-0.03
			c-0.076-0.011-0.156-0.021-0.236-0.03c-0.314-0.038-0.669-0.065-1.051-0.085c-0.361-0.019-0.743-0.03-1.16-0.03H276.302
			c-0.129,0-0.262,0.001-0.395,0.003c-0.066,0.001-0.138,0.004-0.206,0.006c-0.052,0.001-0.105,0.002-0.157,0.004
			c-0.101,0.003-0.198,0.004-0.3,0.007c-0.098,0.004-0.198,0.01-0.299,0.015c-0.04,0.002-0.081,0.004-0.122,0.006
			c-0.104,0.005-0.209,0.01-0.313,0.015c-0.116,0.007-0.235,0.016-0.354,0.024c-0.015,0.001-0.03,0.002-0.045,0.003
			c-0.111,0.008-0.223,0.016-0.335,0.024c-0.59,0.045-1.188,0.103-1.792,0.174c-0.116,0.015-0.232,0.028-0.349,0.043
			c-0.233,0.029-0.466,0.059-0.699,0.092c-0.235,0.032-0.47,0.067-0.704,0.103c-0.051,0.009-0.103,0.015-0.153,0.023
			c-0.049,0.007-0.097,0.017-0.146,0.024c-0.286,0.046-0.571,0.094-0.854,0.146l-0.085,0.014c-0.423,0.076-0.838,0.159-1.241,0.246
			c-0.339,0.071-0.671,0.146-0.995,0.224c-0.125,0.03-0.247,0.061-0.369,0.091c-0.201,0.051-0.398,0.102-0.593,0.154
			c-0.059,0.017-0.122,0.031-0.18,0.047c-0.105,0.028-0.207,0.058-0.303,0.087c-0.103,0.029-0.205,0.06-0.301,0.089
			c-0.302,0.088-0.582,0.179-0.846,0.272c-0.053,0.019-0.102,0.037-0.152,0.055c-0.066,0.024-0.133,0.048-0.197,0.072
			c-0.059,0.021-0.118,0.042-0.177,0.063c-0.082,0.031-0.158,0.063-0.244,0.096c-0.076,0.032-0.155,0.064-0.235,0.098
			c-0.082,0.031-0.156,0.064-0.229,0.098l-56.322,25.358h0.006h0.001l-4.322,1.945c-2.973,1.339-1.783,2.42,2.665,2.42h44.795
			c-18.836,7.65-32.573,8.962-33.045,9.006h-0.182c-0.244,0-0.573,0.059-0.736,0.132l-0.253,0.114
			c-0.163,0.073-0.097,0.133,0.146,0.133h70.846c1.726,0-6.199-1.677,9.07-9.385h44.82c4.436,0,10.428-1.081,13.401-2.42
			l60.646-27.304C416.23,310.794,416.515,310.093,415.533,309.652"/>
		<path clip-path="url(#XMLID_15_)" fill="#26A0DD" d="M434.535,321.094h-4.602c0.091-0.931,1.087-1.663,2.302-1.663
			S434.445,320.163,434.535,321.094"/>
		<path clip-path="url(#XMLID_15_)" fill="#26A0DD" d="M430.395,350.542h6.643l0.027-0.112c0.065-0.269-0.274-0.42-0.942-0.42
			l37.236-18.596h-2.515l-0.663,0.332h-83.086l0.664-0.332h-2.514L348.01,350.01h-0.166c-0.669,0-1.613,0.151-2.625,0.42
			l-0.423,0.112h6.643l0.027-0.112c0.065-0.269-0.273-0.42-0.942-0.42l29.475-14.72h83.084l-29.474,14.72h-0.166
			c-0.669,0-1.613,0.151-2.624,0.42L430.395,350.542z"/>
		<polygon clip-path="url(#XMLID_15_)" fill="#EF9426" points="348.307,323.995 352.712,323.995 348.307,318.537 		"/>
		<polygon clip-path="url(#XMLID_15_)" fill="#EFEFEF" points="348.307,317.761 348.307,318.537 352.712,323.995 358.045,323.995 
			353.012,317.761 		"/>
		<polygon clip-path="url(#XMLID_15_)" fill="#EF9426" points="353.012,317.761 358.045,323.995 363.375,323.995 358.343,317.761 		
			"/>
		<polygon clip-path="url(#XMLID_15_)" fill="#EFEFEF" points="358.343,317.761 363.375,323.995 368.708,323.995 363.676,317.761 		
			"/>
		<polygon clip-path="url(#XMLID_15_)" fill="#EF9426" points="363.676,317.761 368.708,323.995 374.041,323.995 369.008,317.761 		
			"/>
		<polygon clip-path="url(#XMLID_15_)" fill="#EFEFEF" points="369.008,317.761 374.041,323.995 379.371,323.995 374.339,317.761 		
			"/>
		<polygon clip-path="url(#XMLID_15_)" fill="#EF9426" points="374.339,317.761 379.371,323.995 384.704,323.995 379.671,317.761 		
			"/>
		<polygon clip-path="url(#XMLID_15_)" fill="#EFEFEF" points="379.671,317.761 384.704,323.995 390.037,323.995 385.004,317.761 		
			"/>
		<polygon clip-path="url(#XMLID_15_)" fill="#EF9426" points="385.004,317.761 390.037,323.995 395.367,323.995 390.335,317.761 		
			"/>
		<polygon clip-path="url(#XMLID_15_)" fill="#EFEFEF" points="390.335,317.761 395.367,323.995 400.7,323.995 395.667,317.761 		
			"/>
		<polygon clip-path="url(#XMLID_15_)" fill="#EF9426" points="395.667,317.761 400.7,323.995 406.032,323.995 401,317.761 		"/>
		<polygon clip-path="url(#XMLID_15_)" fill="#EFEFEF" points="401,317.761 406.032,323.995 411.363,323.995 406.331,317.761 		"/>
		<polygon clip-path="url(#XMLID_15_)" fill="#EF9426" points="406.331,317.761 411.363,323.995 416.696,323.995 411.663,317.761 		
			"/>
		<polygon clip-path="url(#XMLID_15_)" fill="#EFEFEF" points="411.663,317.761 416.696,323.995 422.028,323.995 416.996,317.761 		
			"/>
		<polygon clip-path="url(#XMLID_15_)" fill="#EF9426" points="416.996,317.761 422.028,323.995 427.359,323.995 422.327,317.761 		
			"/>
		<polygon clip-path="url(#XMLID_15_)" fill="#EFEFEF" points="422.327,317.761 427.359,323.995 432.692,323.995 427.659,317.761 		
			"/>
		<polygon clip-path="url(#XMLID_15_)" fill="#EF9426" points="427.659,317.761 432.692,323.995 433.841,323.995 433.841,318.813 
			432.992,317.761 		"/>
		<polygon clip-path="url(#XMLID_15_)" fill="#FFFFFF" points="433.841,318.813 433.841,317.761 432.992,317.761 		"/>
		<rect x="346.99" y="317.177" clip-path="url(#XMLID_15_)" fill="#191C2D" width="2.514" height="33.399"/>
		<rect x="346.99" y="317.177" clip-path="url(#XMLID_15_)" fill="#272A44" width="1.281" height="33.399"/>
		<path clip-path="url(#XMLID_15_)" fill="#272A44" d="M351.485,350.827h-6.643c0-0.518,0.419-0.937,0.937-0.937h4.77
			C351.065,349.891,351.485,350.31,351.485,350.827"/>
		<rect x="432.589" y="317.177" clip-path="url(#XMLID_15_)" fill="#191C2D" width="2.514" height="33.399"/>
		<rect x="432.589" y="317.177" clip-path="url(#XMLID_15_)" fill="#272A44" width="1.281" height="33.399"/>
		<path clip-path="url(#XMLID_15_)" fill="#272A44" d="M437.084,350.827h-6.643c0-0.518,0.42-0.937,0.938-0.937h4.769
			C436.665,349.891,437.084,350.31,437.084,350.827"/>
		<path clip-path="url(#XMLID_15_)" fill="#26A0DD" d="M162.542,321.094h-4.602c0.092-0.931,1.087-1.663,2.302-1.663
			C161.457,319.431,162.452,320.163,162.542,321.094"/>
		<path clip-path="url(#XMLID_15_)" fill="#26A0DD" d="M157.941,350.542h6.643l0.056-0.112c0.134-0.269-0.166-0.42-0.835-0.42
			l42.019-18.596h-2.514l-0.749,0.332h-83.085l0.749-0.332h-2.514L75.692,350.01h-0.166c-0.668,0-1.651,0.151-2.732,0.42
			l-0.452,0.112h6.642l0.057-0.112c0.134-0.269-0.166-0.42-0.835-0.42l33.261-14.72h83.085l-33.26,14.72h-0.166
			c-0.669,0-1.652,0.151-2.733,0.42L157.941,350.542z"/>
		<polygon clip-path="url(#XMLID_15_)" fill="#EF9426" points="76.313,323.995 80.718,323.995 76.313,318.537 		"/>
		<polygon clip-path="url(#XMLID_15_)" fill="#EFEFEF" points="76.313,317.761 76.313,318.537 80.718,323.995 86.051,323.995 
			81.019,317.761 		"/>
		<polygon clip-path="url(#XMLID_15_)" fill="#EF9426" points="81.019,317.761 86.052,323.995 91.382,323.995 86.35,317.761 		"/>
		<polygon clip-path="url(#XMLID_15_)" fill="#EFEFEF" points="86.349,317.761 91.382,323.995 96.714,323.995 91.682,317.761 		"/>
		<polygon clip-path="url(#XMLID_15_)" fill="#EF9426" points="91.682,317.761 96.715,323.995 102.046,323.995 97.015,317.761 		"/>
		<polygon clip-path="url(#XMLID_15_)" fill="#EFEFEF" points="97.014,317.761 102.047,323.995 107.378,323.995 102.345,317.761 		
			"/>
		<polygon clip-path="url(#XMLID_15_)" fill="#EF9426" points="102.345,317.761 107.378,323.995 112.71,323.995 107.678,317.761 		
			"/>
		<polygon clip-path="url(#XMLID_15_)" fill="#EFEFEF" points="107.678,317.761 112.711,323.995 118.042,323.995 113.011,317.761 		
			"/>
		<polygon clip-path="url(#XMLID_15_)" fill="#EF9426" points="113.01,317.761 118.043,323.995 123.375,323.995 118.341,317.761 		
			"/>
		<polygon clip-path="url(#XMLID_15_)" fill="#EFEFEF" points="118.341,317.761 123.375,323.995 128.706,323.995 123.674,317.761 		
			"/>
		<polygon clip-path="url(#XMLID_15_)" fill="#EF9426" points="123.674,317.761 128.707,323.995 134.039,323.995 129.007,317.761 		
			"/>
		<polygon clip-path="url(#XMLID_15_)" fill="#EFEFEF" points="129.006,317.761 134.039,323.995 139.37,323.995 134.337,317.761 		
			"/>
		<polygon clip-path="url(#XMLID_15_)" fill="#EF9426" points="134.337,317.761 139.371,323.995 144.703,323.995 139.67,317.761 		
			"/>
		<polygon clip-path="url(#XMLID_15_)" fill="#EFEFEF" points="139.67,317.761 144.703,323.995 150.035,323.995 145.003,317.761 		
			"/>
		<polygon clip-path="url(#XMLID_15_)" fill="#EF9426" points="145.002,317.761 150.035,323.995 155.366,323.995 150.333,317.761 		
			"/>
		<polygon clip-path="url(#XMLID_15_)" fill="#EFEFEF" points="150.333,317.761 155.367,323.995 160.699,323.995 155.667,317.761 		
			"/>
		<polygon clip-path="url(#XMLID_15_)" fill="#EF9426" points="155.666,317.761 160.699,323.995 161.848,323.995 161.848,318.813 
			160.999,317.761 		"/>
		<polygon clip-path="url(#XMLID_15_)" fill="#FFFFFF" points="161.848,318.813 161.848,317.761 160.999,317.761 		"/>
		<rect x="74.996" y="317.177" clip-path="url(#XMLID_15_)" fill="#191C2D" width="2.514" height="33.399"/>
		<rect x="74.997" y="317.177" clip-path="url(#XMLID_15_)" fill="#272A44" width="1.281" height="33.399"/>
		<path clip-path="url(#XMLID_15_)" fill="#272A44" d="M79.492,350.827h-6.643c0-0.518,0.42-0.937,0.937-0.937h4.769
			C79.073,349.891,79.492,350.31,79.492,350.827"/>
		<rect x="160.595" y="317.177" clip-path="url(#XMLID_15_)" fill="#191C2D" width="2.514" height="33.399"/>
		<rect x="160.595" y="317.177" clip-path="url(#XMLID_15_)" fill="#272A44" width="1.281" height="33.399"/>
		<path clip-path="url(#XMLID_15_)" fill="#272A44" d="M165.091,350.827h-6.643c0-0.518,0.42-0.937,0.937-0.937h4.769
			C164.672,349.891,165.091,350.31,165.091,350.827"/>
	</g>
	<g>
		<defs>
			<rect id="XMLID_3_" y="30.789" width="500" height="305.667"/>
		</defs>
		<clipPath id="XMLID_16_">
			<use xlink:href="#XMLID_3_" />
		</clipPath>
		<path clip-path="url(#XMLID_16_)" fill="#26A0DD" d="M424.424,292.789H76.91c-1.055,0-1.91-0.855-1.91-1.91
			s0.855-1.909,1.91-1.909h347.514c1.055,0,1.909,0.854,1.909,1.909S425.479,292.789,424.424,292.789"/>
		<rect x="152.353" clip-path="url(#XMLID_16_)" fill="#26A0DD" width="6.413" height="253.295"/>
		<rect x="185.502" clip-path="url(#XMLID_16_)" fill="#26A0DD" width="6.412" height="253.295"/>
		
			<rect x="170.644" y="-0.691" transform="matrix(0.7071 -0.7071 0.7071 0.7071 34.7923 128.1884)" clip-path="url(#XMLID_16_)" fill="#26A0DD" width="2.978" height="45.575"/>
		
			<rect x="170.645" y="-0.691" transform="matrix(-0.7071 -0.7071 0.7071 -0.7071 278.2264 159.4375)" clip-path="url(#XMLID_16_)" fill="#26A0DD" width="2.978" height="45.575"/>
		
			<rect x="170.644" y="29.607" transform="matrix(0.7071 -0.7071 0.7071 0.7071 13.3678 137.0628)" clip-path="url(#XMLID_16_)" fill="#26A0DD" width="2.978" height="45.576"/>
		
			<rect x="170.645" y="29.607" transform="matrix(-0.7071 -0.7071 0.7071 -0.7071 256.8019 211.1609)" clip-path="url(#XMLID_16_)" fill="#26A0DD" width="2.978" height="45.576"/>
		
			<rect x="170.645" y="59.907" transform="matrix(0.7073 -0.7069 0.7069 0.7073 -8.0717 145.8954)" clip-path="url(#XMLID_16_)" fill="#26A0DD" width="2.978" height="45.575"/>
		
			<rect x="170.645" y="59.907" transform="matrix(-0.7073 -0.7069 0.7069 -0.7073 235.4188 262.8704)" clip-path="url(#XMLID_16_)" fill="#26A0DD" width="2.978" height="45.575"/>
		
			<rect x="170.644" y="90.205" transform="matrix(0.7071 -0.7071 0.7071 0.7071 -29.4816 154.8116)" clip-path="url(#XMLID_16_)" fill="#26A0DD" width="2.978" height="45.576"/>
		
			<rect x="170.645" y="90.205" transform="matrix(-0.7071 -0.7071 0.7071 -0.7071 213.9525 314.6084)" clip-path="url(#XMLID_16_)" fill="#26A0DD" width="2.978" height="45.576"/>
		
			<rect x="170.644" y="120.505" transform="matrix(0.7071 -0.7071 0.7071 0.7071 -50.9064 163.686)" clip-path="url(#XMLID_16_)" fill="#26A0DD" width="2.978" height="45.576"/>
		
			<rect x="170.645" y="120.505" transform="matrix(-0.7071 -0.7071 0.7071 -0.7071 192.5277 366.3325)" clip-path="url(#XMLID_16_)" fill="#26A0DD" width="2.978" height="45.576"/>
		
			<rect x="170.644" y="150.804" transform="matrix(0.7071 -0.7071 0.7071 0.7071 -72.3313 172.5605)" clip-path="url(#XMLID_16_)" fill="#26A0DD" width="2.978" height="45.575"/>
		
			<rect x="170.645" y="150.804" transform="matrix(-0.7071 -0.7071 0.7071 -0.7071 171.1028 418.0567)" clip-path="url(#XMLID_16_)" fill="#26A0DD" width="2.978" height="45.575"/>
		
			<rect x="170.644" y="181.103" transform="matrix(0.7071 -0.7071 0.7071 0.7071 -93.7558 181.4348)" clip-path="url(#XMLID_16_)" fill="#26A0DD" width="2.978" height="45.576"/>
		
			<rect x="170.645" y="181.103" transform="matrix(-0.7071 -0.7071 0.7071 -0.7071 149.6783 469.78)" clip-path="url(#XMLID_16_)" fill="#26A0DD" width="2.978" height="45.576"/>
		
			<rect x="170.645" y="211.402" transform="matrix(0.7073 -0.7069 0.7069 0.7073 -115.1704 190.2426)" clip-path="url(#XMLID_16_)" fill="#26A0DD" width="2.978" height="45.575"/>
		
			<rect x="170.645" y="211.402" transform="matrix(-0.7073 -0.7069 0.7069 -0.7073 128.3201 521.5144)" clip-path="url(#XMLID_16_)" fill="#26A0DD" width="2.978" height="45.575"/>
		<rect x="188.609" clip-path="url(#XMLID_16_)" fill="#26A0DD" width="3.558" height="253.295"/>
		<rect x="207.001" clip-path="url(#XMLID_16_)" fill="#26A0DD" width="3.558" height="253.295"/>
		<polygon clip-path="url(#XMLID_16_)" fill="#26A0DD" points="209.109,37.156 207.941,39.262 190.059,7.036 191.228,4.93 		"/>
		<polygon clip-path="url(#XMLID_16_)" fill="#26A0DD" points="190.059,37.156 191.228,39.262 209.109,7.036 207.94,4.93 		"/>
		<polygon clip-path="url(#XMLID_16_)" fill="#26A0DD" points="209.109,67.456 207.941,69.562 190.059,37.334 191.228,35.229 		"/>
		<polygon clip-path="url(#XMLID_16_)" fill="#26A0DD" points="190.059,67.456 191.228,69.562 209.109,37.334 207.94,35.229 		"/>
		<polygon clip-path="url(#XMLID_16_)" fill="#26A0DD" points="209.109,97.755 207.941,99.86 190.059,67.634 191.228,65.528 		"/>
		<polygon clip-path="url(#XMLID_16_)" fill="#26A0DD" points="190.059,97.755 191.228,99.86 209.109,67.634 207.94,65.528 		"/>
		<polygon clip-path="url(#XMLID_16_)" fill="#26A0DD" points="209.109,128.054 207.941,130.16 190.059,97.933 191.228,95.828 		"/>
		<polygon clip-path="url(#XMLID_16_)" fill="#26A0DD" points="190.059,128.054 191.228,130.16 209.109,97.933 207.94,95.828 		"/>
		<polygon clip-path="url(#XMLID_16_)" fill="#26A0DD" points="209.109,158.353 207.941,160.459 190.059,128.232 191.228,126.126 		
			"/>
		<polygon clip-path="url(#XMLID_16_)" fill="#26A0DD" points="190.059,158.353 191.228,160.459 209.109,128.232 207.94,126.126 		
			"/>
		<polygon clip-path="url(#XMLID_16_)" fill="#26A0DD" points="209.109,188.652 207.941,190.758 190.059,158.532 191.228,156.426 		
			"/>
		<polygon clip-path="url(#XMLID_16_)" fill="#26A0DD" points="190.059,188.652 191.228,190.758 209.109,158.532 207.94,156.426 		
			"/>
		<polygon clip-path="url(#XMLID_16_)" fill="#26A0DD" points="209.109,218.951 207.941,221.057 190.059,188.83 191.228,186.724 		
			"/>
		<polygon clip-path="url(#XMLID_16_)" fill="#26A0DD" points="190.059,218.951 191.228,221.057 209.109,188.83 207.94,186.724 		
			"/>
		<polygon clip-path="url(#XMLID_16_)" fill="#26A0DD" points="209.109,249.25 207.941,251.355 190.059,219.129 191.228,217.023 		
			"/>
		<polygon clip-path="url(#XMLID_16_)" fill="#26A0DD" points="190.059,249.25 191.228,251.355 209.109,219.129 207.94,217.023 		
			"/>
		<rect x="146.072" y="246.226" clip-path="url(#XMLID_16_)" fill="#26A0DD" width="67.332" height="48.168"/>
		<rect x="188.535" y="246.226" clip-path="url(#XMLID_16_)" fill="#26A0DD" width="24.869" height="48.168"/>
		<path clip-path="url(#XMLID_16_)" fill="#26A0DD" d="M360.41,258.096c1.45,6.513-2.654,12.968-9.167,14.418
			c-6.514,1.45-12.969-2.654-14.419-9.168c-1.45-6.512,2.654-12.968,9.168-14.418C352.505,247.478,358.96,251.582,360.41,258.096"/>
		<path clip-path="url(#XMLID_16_)" fill="#26A0DD" d="M366.616,243.07c1.45,6.513-2.654,12.968-9.168,14.418
			c-6.513,1.451-12.968-2.654-14.418-9.167s2.654-12.969,9.168-14.419C358.711,232.452,365.166,236.557,366.616,243.07"/>
		<path clip-path="url(#XMLID_16_)" fill="#26A0DD" d="M370.873,230.735c1.45,6.513-2.654,12.968-9.167,14.418
			c-6.514,1.451-12.969-2.654-14.419-9.167s2.654-12.969,9.167-14.418C362.968,220.117,369.423,224.222,370.873,230.735"/>
		<path clip-path="url(#XMLID_16_)" fill="#26A0DD" d="M378.439,239.268c1.45,6.513-2.654,12.968-9.167,14.418
			c-6.514,1.45-12.969-2.654-14.419-9.167s2.654-12.969,9.168-14.419C370.534,228.65,376.99,232.755,378.439,239.268"/>
		<path clip-path="url(#XMLID_16_)" fill="#26A0DD" d="M378.24,257.635c1.45,6.513-2.654,12.968-9.167,14.418
			c-6.514,1.45-12.969-2.654-14.419-9.168c-1.45-6.512,2.654-12.968,9.168-14.418C370.335,247.017,376.791,251.122,378.24,257.635"
			/>
		<path clip-path="url(#XMLID_16_)" fill="#1A96C6" d="M359.175,290.604L359.175,290.604c-0.473,0-0.855-0.384-0.855-0.856v-43.952
			c0-0.472,0.383-0.856,0.855-0.856c0.474,0,0.856,0.384,0.856,0.856v43.952C360.031,290.221,359.648,290.604,359.175,290.604"/>
		<path clip-path="url(#XMLID_16_)" fill="#1A96C6" d="M358.822,267.364L358.822,267.364c-0.334-0.334-0.334-0.876,0-1.211
			l4.694-4.694c0.334-0.334,0.877-0.334,1.211,0c0.334,0.335,0.334,0.877,0,1.211l-4.694,4.694
			C359.699,267.698,359.157,267.698,358.822,267.364"/>
		<path clip-path="url(#XMLID_16_)" fill="#1A96C6" d="M359.686,253.284L359.686,253.284c0.334-0.334,0.334-0.876,0-1.21
			l-4.694-4.695c-0.334-0.334-0.876-0.334-1.211,0c-0.334,0.335-0.334,0.877,0,1.211l4.694,4.694
			C358.809,253.618,359.352,253.618,359.686,253.284"/>
		<path clip-path="url(#XMLID_16_)" fill="#26A0DD" d="M107.365,255.999c1.768,7.941-3.236,15.813-11.178,17.581
			c-7.941,1.767-15.812-3.237-17.58-11.179c-1.768-7.941,3.237-15.812,11.178-17.58C97.726,243.053,105.597,248.058,107.365,255.999
			"/>
		<path clip-path="url(#XMLID_16_)" fill="#26A0DD" d="M114.932,237.678c1.768,7.941-3.236,15.813-11.178,17.581
			c-7.941,1.768-15.812-3.237-17.58-11.179c-1.768-7.941,3.237-15.812,11.178-17.58
			C105.292,224.732,113.164,229.737,114.932,237.678"/>
		<path clip-path="url(#XMLID_16_)" fill="#26A0DD" d="M124.066,223.103c1.768,7.941-3.237,15.813-11.178,17.581
			c-7.942,1.767-15.812-3.237-17.58-11.179c-1.768-7.941,3.236-15.812,11.177-17.58
			C114.427,210.157,122.298,215.162,124.066,223.103"/>
		<path clip-path="url(#XMLID_16_)" fill="#26A0DD" d="M132.132,236.058c1.768,7.941-3.236,15.813-11.178,17.581
			c-7.941,1.768-15.812-3.237-17.58-11.179c-1.768-7.941,3.237-15.812,11.178-17.58
			C122.493,223.112,130.364,228.117,132.132,236.058"/>
		<path clip-path="url(#XMLID_16_)" fill="#26A0DD" d="M124.813,260.193c1.768,7.941-3.237,15.813-11.178,17.58
			c-7.942,1.768-15.812-3.236-17.58-11.178c-1.768-7.941,3.236-15.812,11.177-17.58
			C115.174,247.247,123.045,252.252,124.813,260.193"/>
		<path clip-path="url(#XMLID_16_)" fill="#26A0DD" d="M139.544,255.669c1.768,7.941-3.236,15.813-11.178,17.581
			c-7.941,1.768-15.812-3.237-17.58-11.179c-1.768-7.941,3.237-15.812,11.178-17.58
			C129.905,242.723,137.776,247.728,139.544,255.669"/>
		<path clip-path="url(#XMLID_16_)" fill="#1A96C6" d="M109.339,292.853L109.339,292.853c-0.577,0-1.044-0.468-1.044-1.044V238.22
			c0-0.577,0.467-1.044,1.044-1.044s1.044,0.467,1.044,1.044v53.589C110.383,292.385,109.916,292.853,109.339,292.853"/>
		<path clip-path="url(#XMLID_16_)" fill="#1A96C6" d="M108.909,264.516L108.909,264.516c-0.408-0.408-0.408-1.069,0-1.477
			l5.724-5.723c0.407-0.407,1.068-0.407,1.476,0c0.407,0.408,0.407,1.069,0,1.477l-5.723,5.723
			C109.978,264.924,109.317,264.924,108.909,264.516"/>
		<path clip-path="url(#XMLID_16_)" fill="#1A96C6" d="M109.961,247.349L109.961,247.349c0.408-0.408,0.408-1.069,0-1.477
			l-5.723-5.723c-0.408-0.407-1.069-0.407-1.477,0c-0.407,0.408-0.407,1.069,0,1.477l5.723,5.723
			C108.892,247.757,109.553,247.757,109.961,247.349"/>
	</g>
	<g>
		<defs>
			<rect id="XMLID_5_" y="30.789" width="500" height="500"/>
		</defs>
		<clipPath id="XMLID_17_">
			<use xlink:href="#XMLID_5_" />
		</clipPath>
		<path clip-path="url(#XMLID_17_)" fill="#26A0DD" d="M346.117,150.94h-54.575c0.388-3.868,3.636-6.878,7.597-6.897
			c0.423-3.832,3.672-6.817,7.614-6.817c2.654,0,4.99,1.342,6.369,3.396c1.318-1.073,2.992-1.716,4.825-1.716
			c1.882,0,3.604,0.686,4.941,1.814c1.403-1.667,3.507-2.734,5.86-2.734c3.556,0,6.542,2.434,7.406,5.72
			c0.724-0.227,1.496-0.349,2.299-0.349C342.666,143.357,346.074,146.741,346.117,150.94"/>
		<path clip-path="url(#XMLID_17_)" fill="#26A0DD" d="M419.574,197.23h-48.102c0.552-3.69,3.74-6.517,7.578-6.517
			c0.589,0,1.165,0.074,1.717,0.203c0.962-3.133,3.88-5.414,7.326-5.414c1.949,0,3.721,0.736,5.076,1.937
			c0.975-0.447,2.054-0.71,3.2-0.71c2.433,0,4.598,1.14,6.002,2.911c1.25-2.538,3.855-4.285,6.872-4.285
			c4.23,0,7.663,3.427,7.663,7.663c0,0.527-0.055,1.048-0.159,1.545C417.9,195.195,418.882,196.114,419.574,197.23"/>
		<path clip-path="url(#XMLID_17_)" fill="#26A0DD" d="M137.004,162.328h-35.117c0.399-2.784,2.3-5.083,4.85-6.057
			c1.189-2.704,3.88-4.592,7.025-4.592c2.373,0,4.5,1.079,5.904,2.777c1.398-1.459,3.36-2.373,5.536-2.373
			c3.464,0,6.388,2.3,7.339,5.457C134.656,158.386,136.312,160.145,137.004,162.328"/>
		<path clip-path="url(#XMLID_17_)" fill="#26A0DD" d="M131.96,310.317h-9.57c0.191-1.934,2.26-3.458,4.787-3.458
			C129.704,306.859,131.774,308.384,131.96,310.317"/>
		<path clip-path="url(#XMLID_17_)" fill="#26A0DD" d="M396.45,408.921h-16.988c0.338-3.434,4.013-6.139,8.498-6.139
			S396.12,405.487,396.45,408.921"/>
		<path clip-path="url(#XMLID_17_)" fill="#26A0DD" d="M411.561,408.921h-24.599c0.49-4.972,5.81-8.889,12.305-8.889
			S411.081,403.949,411.561,408.921"/>
		<path clip-path="url(#XMLID_17_)" fill="#26A0DD" d="M399.112,329.539h-6.227c0.122-1.259,1.47-2.25,3.114-2.25
			S398.991,328.28,399.112,329.539"/>
		<path clip-path="url(#XMLID_17_)" fill="#26A0DD" d="M119.572,340.665h-6.227c0.124-1.259,1.471-2.25,3.115-2.25
			S119.451,339.406,119.572,340.665"/>
		<path clip-path="url(#XMLID_17_)" fill="#26A0DD" d="M167.383,343.133L167.383,343.133c0.142,0.084,0.327,0.036,0.411-0.104
			l1.894-3.204c0.084-0.142,0.037-0.326-0.105-0.41c-0.142-0.084-0.326-0.036-0.41,0.105l-1.895,3.202
			C167.194,342.863,167.241,343.049,167.383,343.133"/>
		<path clip-path="url(#XMLID_17_)" fill="#26A0DD" d="M167.581,343.134L167.581,343.134c0.16-0.041,0.257-0.205,0.216-0.365
			l-0.925-3.604c-0.041-0.159-0.205-0.257-0.365-0.217c-0.159,0.041-0.257,0.206-0.216,0.366l0.925,3.604
			C167.257,343.077,167.421,343.174,167.581,343.134"/>
		<path clip-path="url(#XMLID_17_)" fill="#26A0DD" d="M167.373,343.071L167.373,343.071c0.07,0.1,0.208,0.124,0.307,0.054
			l2.242-1.575c0.099-0.069,0.123-0.208,0.053-0.308c-0.069-0.099-0.208-0.123-0.307-0.054l-2.241,1.576
			C167.327,342.834,167.303,342.973,167.373,343.071"/>
		<path clip-path="url(#XMLID_17_)" fill="#26A0DD" d="M391.839,346.381L391.839,346.381c0.142,0.084,0.327,0.036,0.411-0.105
			l1.895-3.202c0.084-0.143,0.036-0.327-0.105-0.411s-0.326-0.036-0.41,0.105l-1.895,3.202
			C391.65,346.112,391.697,346.297,391.839,346.381"/>
		<path clip-path="url(#XMLID_17_)" fill="#26A0DD" d="M392.037,346.382L392.037,346.382c0.159-0.041,0.257-0.205,0.216-0.365
			l-0.925-3.604c-0.041-0.159-0.205-0.257-0.365-0.216c-0.159,0.041-0.257,0.206-0.216,0.365l0.925,3.604
			C391.713,346.325,391.877,346.423,392.037,346.382"/>
		<path clip-path="url(#XMLID_17_)" fill="#26A0DD" d="M391.829,346.319L391.829,346.319c0.069,0.1,0.208,0.124,0.307,0.054
			l2.241-1.574c0.1-0.07,0.124-0.208,0.054-0.308c-0.069-0.1-0.208-0.124-0.307-0.054l-2.242,1.575
			C391.783,346.082,391.759,346.221,391.829,346.319"/>
		<path clip-path="url(#XMLID_17_)" fill="#26A0DD" d="M115.391,381.493L115.391,381.493c0.451,0.044,0.856-0.288,0.901-0.739
			l1.006-10.184c0.044-0.451-0.288-0.856-0.74-0.901c-0.451-0.044-0.856,0.288-0.9,0.739l-1.006,10.184
			C114.606,381.043,114.939,381.448,115.391,381.493"/>
		<path clip-path="url(#XMLID_17_)" fill="#26A0DD" d="M115.884,381.266L115.884,381.266c0.351-0.287,0.402-0.81,0.115-1.16
			l-6.49-7.912c-0.288-0.35-0.809-0.401-1.16-0.114c-0.35,0.287-0.402,0.81-0.114,1.16l6.489,7.912
			C115.012,381.501,115.533,381.553,115.884,381.266"/>
		<path clip-path="url(#XMLID_17_)" fill="#26A0DD" d="M115.293,381.354L115.293,381.354c0.29,0.166,0.662,0.065,0.829-0.224
			l3.759-6.529c0.166-0.289,0.066-0.661-0.223-0.828c-0.29-0.166-0.662-0.065-0.829,0.224l-3.759,6.528
			C114.904,380.813,115.004,381.187,115.293,381.354"/>
		<path clip-path="url(#XMLID_17_)" fill="#26A0DD" d="M395.527,377.529L395.527,377.529c0.336-0.091,0.537-0.44,0.445-0.776
			l-2.056-7.592c-0.092-0.337-0.441-0.537-0.777-0.446c-0.336,0.092-0.537,0.441-0.446,0.777l2.057,7.592
			C394.84,377.42,395.19,377.621,395.527,377.529"/>
		<path clip-path="url(#XMLID_17_)" fill="#26A0DD" d="M395.82,377.231L395.82,377.231c0.173-0.302,0.067-0.691-0.234-0.864
			l-6.822-3.914c-0.303-0.174-0.691-0.068-0.865,0.233c-0.173,0.303-0.067,0.691,0.234,0.865l6.822,3.914
			C395.258,377.639,395.646,377.533,395.82,377.231"/>
		<path clip-path="url(#XMLID_17_)" fill="#26A0DD" d="M395.42,377.456L395.42,377.456c0.253,0.04,0.493-0.134,0.534-0.387
			l0.919-5.717c0.041-0.254-0.133-0.494-0.387-0.535c-0.254-0.04-0.493,0.134-0.534,0.387l-0.919,5.717
			C394.992,377.175,395.166,377.415,395.42,377.456"/>
		<path clip-path="url(#XMLID_17_)" fill="#26A0DD" d="M193.077,349.793L193.077,349.793c0.266,0.157,0.612,0.068,0.77-0.197
			l3.552-6.005c0.158-0.266,0.069-0.612-0.197-0.77s-0.612-0.068-0.77,0.197l-3.553,6.005
			C192.722,349.289,192.811,349.636,193.077,349.793"/>
		<path clip-path="url(#XMLID_17_)" fill="#26A0DD" d="M193.448,349.795L193.448,349.795c0.299-0.077,0.481-0.385,0.405-0.684
			l-1.734-6.759c-0.077-0.299-0.385-0.481-0.684-0.404c-0.3,0.077-0.482,0.385-0.404,0.684l1.733,6.759
			C192.841,349.69,193.149,349.872,193.448,349.795"/>
		<path clip-path="url(#XMLID_17_)" fill="#26A0DD" d="M193.058,349.679L193.058,349.679c0.131,0.187,0.39,0.231,0.576,0.101
			l4.203-2.954c0.186-0.13,0.231-0.39,0.1-0.575c-0.13-0.187-0.39-0.231-0.576-0.101l-4.202,2.953
			C192.973,349.233,192.927,349.492,193.058,349.679"/>
		<path clip-path="url(#XMLID_17_)" fill="#26A0DD" d="M467.06,346.915L467.06,346.915c0.309-0.023,0.542-0.294,0.519-0.603
			l-0.518-6.958c-0.021-0.308-0.294-0.541-0.602-0.519c-0.309,0.023-0.542,0.294-0.519,0.603l0.518,6.958
			C466.48,346.704,466.752,346.938,467.06,346.915"/>
		<path clip-path="url(#XMLID_17_)" fill="#26A0DD" d="M467.365,346.704L467.365,346.704c0.201-0.234,0.175-0.591-0.06-0.792
			l-5.286-4.554c-0.233-0.202-0.59-0.176-0.792,0.059s-0.175,0.591,0.059,0.792l5.286,4.554
			C466.807,346.965,467.163,346.938,467.365,346.704"/>
		<path clip-path="url(#XMLID_17_)" fill="#26A0DD" d="M466.979,346.832L466.979,346.832c0.214,0.078,0.452-0.033,0.53-0.246
			l1.76-4.826c0.078-0.214-0.033-0.453-0.247-0.53c-0.214-0.078-0.452,0.033-0.53,0.246l-1.76,4.826
			C466.653,346.516,466.765,346.755,466.979,346.832"/>
		<path clip-path="url(#XMLID_17_)" fill="#26A0DD" d="M138.584,348.09L138.584,348.09c0.309,0.001,0.563-0.25,0.565-0.56
			l0.035-6.977c0.002-0.31-0.25-0.563-0.559-0.564c-0.309-0.002-0.563,0.25-0.565,0.559l-0.035,6.977
			C138.023,347.834,138.275,348.088,138.584,348.09"/>
		<path clip-path="url(#XMLID_17_)" fill="#26A0DD" d="M138.905,347.903L138.905,347.903c0.22-0.217,0.222-0.574,0.004-0.794
			l-4.908-4.959c-0.218-0.219-0.575-0.221-0.795-0.004c-0.219,0.218-0.221,0.575-0.004,0.795l4.909,4.958
			C138.328,348.119,138.686,348.121,138.905,347.903"/>
		<path clip-path="url(#XMLID_17_)" fill="#26A0DD" d="M138.51,348.001L138.51,348.001c0.207,0.095,0.454,0.003,0.548-0.204
			l2.137-4.672c0.094-0.206,0.003-0.453-0.205-0.548c-0.207-0.095-0.453-0.003-0.548,0.204l-2.136,4.672
			C138.211,347.659,138.303,347.906,138.51,348.001"/>
		<rect x="245.894" y="30.789" clip-path="url(#XMLID_17_)" fill="#414556" width="0.925" height="108.994"/>
		<rect x="250.363" y="30.789" clip-path="url(#XMLID_17_)" fill="#414556" width="0.926" height="108.994"/>
		<rect x="254.832" y="30.789" clip-path="url(#XMLID_17_)" fill="#414556" width="0.926" height="108.994"/>
		<rect x="259.302" y="30.789" clip-path="url(#XMLID_17_)" fill="#414556" width="0.926" height="108.994"/>
		<path clip-path="url(#XMLID_17_)" fill="#272A44" d="M257.46,160.957c-0.104,2.283-1.288,4.311-3.058,5.568
			c-0.208,0.15-0.428,0.289-0.655,0.412c-0.883,0.502-1.882,0.814-2.942,0.899c-0.324,0.023-0.644,0.027-0.96,0.016
			c-0.262-0.016-0.517-0.043-0.772-0.085c-1.519-0.247-2.88-0.964-3.925-1.998c-0.185-0.181-0.362-0.374-0.524-0.578
			c-0.976-1.192-1.574-2.703-1.623-4.35c0-0.131,0.104-0.238,0.238-0.238c0.047,0,0.093,0.015,0.132,0.042
			c0.004,0,0.007,0.003,0.011,0.007l0.054,0.055l1.758,1.762c0.301,0.3,0.629,0.559,0.98,0.767c0.227,0.139,0.462,0.258,0.702,0.355
			c0.697,0.289,1.449,0.42,2.197,0.389c0.259-0.011,0.517-0.042,0.772-0.092c0.258-0.051,0.512-0.12,0.763-0.209
			c0.139-0.05,0.282-0.108,0.417-0.173c0.235-0.104,0.463-0.232,0.683-0.378c0.285-0.189,0.555-0.409,0.806-0.659h0.004
			c2.021-2.025,2.021-5.299,0-7.323l-1.743-1.743c-0.154-0.154-0.239-0.362-0.239-0.578v-7.677c0-0.143,0.011-0.282,0.034-0.417
			c0.193-1.214,1.223-2.178,2.484-2.186c0.702,0,1.338,0.282,1.801,0.741c0.378,0.381,0.636,0.882,0.713,1.445
			c0.016,0.112,0.023,0.228,0.023,0.344v9.543c0,0.675,0.204,1.33,0.59,1.881C257.052,157.757,257.537,159.299,257.46,160.957"/>
		<rect x="250.536" y="148.856" clip-path="url(#XMLID_17_)" fill="#191C2D" width="5.055" height="2.506"/>
		<path clip-path="url(#XMLID_17_)" fill="#414556" d="M256.141,149.585h-5.785c-0.347,0-0.664-0.2-0.814-0.513l-4.419-9.23
			c-0.286-0.599,0.15-1.292,0.815-1.292h14.621c0.664,0,1.101,0.693,0.814,1.292l-4.42,9.23
			C256.805,149.385,256.487,149.585,256.141,149.585"/>
		<path clip-path="url(#XMLID_17_)" fill="#EF9426" d="M247.463,144.73l2.078,4.341c0.15,0.314,0.467,0.513,0.814,0.513h1.117
			l-2.023-4.854H247.463z"/>
		<polygon clip-path="url(#XMLID_17_)" fill="#FFFFFF" points="249.484,144.73 249.449,144.73 251.473,149.584 253.552,149.584 
			251.528,144.73 		"/>
		<polygon clip-path="url(#XMLID_17_)" fill="#EF9426" points="251.563,144.73 251.528,144.73 253.552,149.584 255.631,149.584 
			253.607,144.73 		"/>
		<path clip-path="url(#XMLID_17_)" fill="#FFFFFF" d="M255.687,144.73h-2.044h-0.035l2.023,4.854h0.51
			c0.347,0,0.664-0.199,0.813-0.513l0.29-0.605L255.687,144.73z"/>
		<polygon clip-path="url(#XMLID_17_)" fill="#EF9426" points="258.355,146.145 257.766,144.73 255.722,144.73 255.687,144.73 
			257.244,148.467 		"/>
		<polygon clip-path="url(#XMLID_17_)" fill="#FFFFFF" points="259.032,144.73 257.801,144.73 257.766,144.73 258.355,146.146 		"/>
		<path clip-path="url(#XMLID_17_)" fill="#191C2D" d="M246.875,163.591l-1.728,2.178c-0.185-0.181-0.362-0.374-0.524-0.578
			l1.55-1.955C246.401,163.375,246.637,163.494,246.875,163.591"/>
		<path clip-path="url(#XMLID_17_)" fill="#191C2D" d="M254.402,166.525c-0.208,0.15-0.428,0.29-0.655,0.413l-2.723-3.432
			c0.235-0.104,0.463-0.231,0.683-0.378L254.402,166.525z"/>
		<path clip-path="url(#XMLID_17_)" fill="#191C2D" d="M249.845,163.888v3.964c-0.262-0.016-0.517-0.043-0.771-0.085v-3.787
			C249.332,163.969,249.591,163.938,249.845,163.888"/>
		<path clip-path="url(#XMLID_17_)" fill="#FFFFFF" d="M235.126,177.188c-0.084,0-0.168-0.027-0.24-0.083
			c-0.166-0.133-0.194-0.375-0.062-0.542l11.086-13.978c0.133-0.167,0.375-0.194,0.542-0.063c0.166,0.133,0.194,0.375,0.062,0.542
			l-11.086,13.978C235.353,177.138,235.239,177.188,235.126,177.188"/>
		<path clip-path="url(#XMLID_17_)" fill="#FFFFFF" d="M262.696,177.188c-0.113,0-0.226-0.05-0.302-0.146l-11.086-13.978
			c-0.133-0.167-0.104-0.409,0.063-0.542c0.167-0.132,0.409-0.104,0.542,0.063l11.085,13.978c0.133,0.167,0.104,0.409-0.063,0.542
			C262.865,177.161,262.78,177.188,262.696,177.188"/>
		<path clip-path="url(#XMLID_17_)" fill="#FFFFFF" d="M249.072,177.863c-0.213,0-0.385-0.173-0.385-0.386v-13.881
			c0-0.213,0.172-0.385,0.385-0.385s0.386,0.172,0.386,0.385v13.881C249.458,177.69,249.285,177.863,249.072,177.863"/>
		<path clip-path="url(#XMLID_17_)" fill="#C1C4D3" d="M288.447,349.4h-71.927c0,0,13.319-4.826,13.319-37.589h45.301
			c0,2.18,0.063,4.247,0.176,6.188C276.854,345.191,288.447,349.4,288.447,349.4"/>
		<path clip-path="url(#XMLID_17_)" fill="#C1C4D3" d="M288.651,350.657h-72.304c-0.243,0-0.441-0.197-0.441-0.441v-0.378
			c0-0.243,0.198-0.441,0.441-0.441h72.304c0.243,0,0.44,0.198,0.44,0.441v0.378C289.092,350.46,288.895,350.657,288.651,350.657"/>
		<path clip-path="url(#XMLID_17_)" fill="#DADCEA" d="M328.787,220.706v90.728c0,4.448-3.591,8.039-8.026,8.039H185.299
			c-4.449,0-8.04-3.591-8.04-8.039v-90.728c0-3.503,2.243-6.477,5.368-7.561c0.832-0.302,1.726-0.466,2.672-0.466h135.461
			C325.196,212.679,328.787,216.27,328.787,220.706"/>
		<path clip-path="url(#XMLID_17_)" fill="#191C2D" d="M328.783,220.708v84.26H177.259v-84.26c0-0.11,0-0.22,0.005-0.325
			c0.007-0.11,0.013-0.22,0.019-0.324c0.012-0.111,0.018-0.215,0.03-0.319c0.031-0.215,0.062-0.423,0.105-0.632
			c0.061-0.306,0.141-0.613,0.239-0.907c0.03-0.098,0.067-0.196,0.104-0.294c0.031-0.098,0.067-0.197,0.11-0.288
			c0.24-0.571,0.546-1.104,0.902-1.6c0.239-0.332,0.502-0.638,0.784-0.933c0.852-0.864,1.901-1.538,3.072-1.943
			c0.313-0.11,0.631-0.208,0.956-0.282c0.215-0.043,0.435-0.086,0.656-0.116c0.209-0.025,0.417-0.05,0.625-0.056
			c0.129-0.006,0.258-0.012,0.387-0.012H320.74c0.558,0,1.109,0.055,1.637,0.166c0.258,0.049,0.509,0.116,0.76,0.196
			c0.123,0.037,0.252,0.08,0.375,0.123c0.864,0.312,1.655,0.772,2.348,1.348c0.202,0.166,0.393,0.337,0.57,0.521
			C327.883,216.478,328.783,218.489,328.783,220.708"/>
		<path clip-path="url(#XMLID_17_)" fill="#DADCEA" d="M286.385,349.4h-71.927c0,0,13.319-4.826,13.319-37.589h45.301
			c0,2.18,0.063,4.247,0.176,6.188C274.791,345.191,286.385,349.4,286.385,349.4"/>
		<path clip-path="url(#XMLID_17_)" fill="#C1C4D3" d="M286.589,350.657h-72.304c-0.243,0-0.441-0.197-0.441-0.441v-0.378
			c0-0.243,0.198-0.441,0.441-0.441h72.304c0.243,0,0.44,0.198,0.44,0.441v0.378C287.029,350.46,286.832,350.657,286.589,350.657"/>
		<path clip-path="url(#XMLID_17_)" fill="#C1C4D3" d="M273.254,319.389c-0.643,0.189-1.424,0.29-2.368,0.29
			c-20.566,0-23.477,17.121-30.243,24.291c-3.088,3.251-6.364,4.751-9.023,5.431h-17.162c0,0,13.319-4.826,13.319-37.589h45.301
			C273.078,313.991,273.141,317.448,273.254,319.389"/>
		<path clip-path="url(#XMLID_17_)" fill="#FFFFFF" d="M326.204,220.706v90.728c0,4.448-3.592,8.039-8.027,8.039H182.715
			c-4.448,0-8.039-3.591-8.039-8.039v-90.728c0-3.503,2.243-6.477,5.368-7.561c0.831-0.302,1.726-0.466,2.671-0.466h135.461
			C322.612,212.679,326.204,216.27,326.204,220.706"/>
		<path clip-path="url(#XMLID_17_)" fill="#37A8EE" d="M326.2,220.708v84.26H174.675v-84.26c0-0.11,0-0.22,0.006-0.325
			c0.006-0.11,0.013-0.22,0.019-0.324c0.012-0.111,0.018-0.215,0.03-0.319c0.031-0.215,0.062-0.423,0.104-0.632
			c0.062-0.306,0.141-0.613,0.24-0.907c0.03-0.098,0.067-0.196,0.104-0.294c0.03-0.098,0.067-0.197,0.11-0.288
			c0.239-0.571,0.546-1.104,0.901-1.6c0.24-0.332,0.503-0.638,0.785-0.933c0.852-0.864,1.901-1.538,3.072-1.943
			c0.312-0.11,0.631-0.208,0.956-0.282c0.215-0.043,0.435-0.086,0.656-0.116c0.209-0.025,0.417-0.05,0.625-0.056
			c0.129-0.006,0.258-0.012,0.386-0.012h135.488c0.558,0,1.109,0.055,1.637,0.166c0.258,0.049,0.509,0.116,0.761,0.196
			c0.122,0.037,0.251,0.08,0.373,0.123c0.865,0.312,1.655,0.772,2.349,1.348c0.202,0.166,0.393,0.337,0.569,0.521
			C325.299,216.478,326.2,218.489,326.2,220.708"/>
		<path clip-path="url(#XMLID_17_)" fill="#DADCEA" d="M253.721,312.071c0,2.306-1.869,4.176-4.175,4.176
			c-2.306,0-4.176-1.87-4.176-4.176c0-2.307,1.87-4.176,4.176-4.176C251.852,307.896,253.721,309.765,253.721,312.071"/>
		<path clip-path="url(#XMLID_17_)" fill="#272A44" d="M323.847,215.031c-0.178-0.184-0.368-0.356-0.57-0.521
			c-0.693-0.576-1.49-1.03-2.349-1.349c-0.122-0.043-0.251-0.086-0.374-0.122c-0.251-0.081-0.502-0.142-0.76-0.197
			c-0.527-0.11-1.079-0.165-1.637-0.165H182.669c-0.128,0-0.257,0.006-0.386,0.012c-0.208,0.006-0.417,0.031-0.625,0.055
			c-0.221,0.031-0.442,0.074-0.656,0.116c-1.25,0.266-2.394,0.832-3.353,1.614l-0.001,0.001c-0.235,0.192-0.463,0.394-0.674,0.611
			c-0.288,0.288-0.552,0.601-0.785,0.932c-0.362,0.49-0.668,1.03-0.901,1.6c-0.043,0.092-0.08,0.19-0.11,0.288
			c-0.037,0.098-0.074,0.196-0.105,0.294c-0.104,0.295-0.184,0.595-0.239,0.908c-0.042,0.208-0.073,0.416-0.104,0.631
			c-0.012,0.104-0.019,0.209-0.031,0.319c-0.006,0.104-0.012,0.214-0.018,0.325c-0.012,0.104-0.012,0.215-0.012,0.325v84.26H326.2
			v-84.26C326.2,218.488,325.299,216.478,323.847,215.031 M319.898,297.083H180.971v-76.375c0-0.944,0.779-1.729,1.722-1.729
			h135.464c0.956,0,1.741,0.785,1.741,1.729V297.083z"/>
		<g clip-path="url(#XMLID_17_)">
			<g>
				<defs>
					<rect id="XMLID_7_" x="187.151" y="212.677" width="130.381" height="69.938"/>
				</defs>
				<clipPath id="XMLID_18_">
					<use xlink:href="#XMLID_7_" />
				</clipPath>
				<path clip-path="url(#XMLID_18_)" fill="#D7CDCD" d="M317.531,212.677v64.629c0,2.931-2.378,5.31-5.309,5.31H192.46
					c-2.936,0-5.309-2.378-5.309-5.31v-64.629H317.531z"/>
			</g>
		</g>
		<path clip-path="url(#XMLID_17_)" fill="#E8E6E6" d="M314.16,179.521v90.886c0,2.933-2.376,5.309-5.309,5.309H189.086
			c-2.933,0-5.309-2.376-5.309-5.309v-90.886c0-2.933,2.376-5.309,5.309-5.309h119.766
			C311.784,174.212,314.16,176.588,314.16,179.521"/>
		<path clip-path="url(#XMLID_17_)" fill="#EF9426" d="M314.16,179.521v18.123H183.777v-18.123c0-2.933,2.376-5.309,5.309-5.309
			h119.766C311.784,174.212,314.16,176.588,314.16,179.521"/>
		<path clip-path="url(#XMLID_17_)" fill="#FFFFFF" d="M303.01,189.631h-67.224c-2.107,0-3.816-1.708-3.816-3.816
			c0-2.107,1.709-3.816,3.816-3.816h67.224c2.107,0,3.816,1.709,3.816,3.816C306.826,187.923,305.117,189.631,303.01,189.631"/>
		<path clip-path="url(#XMLID_17_)" fill="#E73A3A" d="M199.971,185.629c0,2.067-1.676,3.744-3.744,3.744
			c-2.067,0-3.743-1.677-3.743-3.744s1.676-3.743,3.743-3.743C198.295,181.886,199.971,183.563,199.971,185.629"/>
		<path clip-path="url(#XMLID_17_)" fill="#EED467" d="M209.552,185.629c0,2.067-1.676,3.744-3.743,3.744
			c-2.068,0-3.743-1.677-3.743-3.744s1.675-3.743,3.743-3.743C207.876,181.886,209.552,183.563,209.552,185.629"/>
		<path clip-path="url(#XMLID_17_)" fill="#63CD63" d="M219.133,185.629c0,2.067-1.676,3.744-3.744,3.744
			c-2.067,0-3.743-1.677-3.743-3.744s1.676-3.743,3.743-3.743C217.457,181.886,219.133,183.563,219.133,185.629"/>
		<path clip-path="url(#XMLID_17_)" fill="#D7CDCD" d="M244.247,258.988h-46.485c-2.79,0-5.053-2.262-5.053-5.053v-38.401
			c0-2.79,2.263-5.052,5.053-5.052h46.485c2.791,0,5.053,2.262,5.053,5.052v38.401C249.3,256.726,247.038,258.988,244.247,258.988"
			/>
		<path clip-path="url(#XMLID_17_)" fill="#FFFFFF" d="M242.6,257.341h-46.485c-2.791,0-5.053-2.262-5.053-5.053v-38.4
			c0-2.791,2.262-5.053,5.053-5.053H242.6c2.791,0,5.053,2.262,5.053,5.053v38.4C247.653,255.079,245.391,257.341,242.6,257.341"/>
		<path clip-path="url(#XMLID_17_)" fill="#FFFFFF" d="M307.495,215.684h-54.111c-0.685,0-1.24-0.555-1.24-1.24v-0.44
			c0-0.685,0.556-1.239,1.24-1.239h54.111c0.685,0,1.239,0.554,1.239,1.239v0.44C308.734,215.129,308.18,215.684,307.495,215.684"/>
		<path clip-path="url(#XMLID_17_)" fill="#FFFFFF" d="M307.495,222.72h-54.111c-0.685,0-1.24-0.555-1.24-1.239v-0.441
			c0-0.684,0.556-1.239,1.24-1.239h54.111c0.685,0,1.239,0.555,1.239,1.239v0.441C308.734,222.165,308.18,222.72,307.495,222.72"/>
		<path clip-path="url(#XMLID_17_)" fill="#FFFFFF" d="M307.495,229.757h-54.111c-0.685,0-1.24-0.555-1.24-1.24v-0.44
			c0-0.684,0.556-1.239,1.24-1.239h54.111c0.685,0,1.239,0.555,1.239,1.239v0.44C308.734,229.202,308.18,229.757,307.495,229.757"/>
		<path clip-path="url(#XMLID_17_)" fill="#FFFFFF" d="M307.495,236.793h-54.111c-0.685,0-1.24-0.555-1.24-1.239v-0.441
			c0-0.684,0.556-1.239,1.24-1.239h54.111c0.685,0,1.239,0.555,1.239,1.239v0.441C308.734,236.238,308.18,236.793,307.495,236.793"
			/>
		<path clip-path="url(#XMLID_17_)" fill="#FFFFFF" d="M307.495,243.83h-54.111c-0.685,0-1.24-0.555-1.24-1.24v-0.44
			c0-0.684,0.556-1.239,1.24-1.239h54.111c0.685,0,1.239,0.555,1.239,1.239v0.44C308.734,243.274,308.18,243.83,307.495,243.83"/>
		<path clip-path="url(#XMLID_17_)" fill="#FFFFFF" d="M307.495,264.163h-54.111c-0.685,0-1.24-0.555-1.24-1.24v-0.44
			c0-0.685,0.556-1.239,1.24-1.239h54.111c0.685,0,1.239,0.554,1.239,1.239v0.44C308.734,263.608,308.18,264.163,307.495,264.163"/>
		<path clip-path="url(#XMLID_17_)" fill="#FFFFFF" d="M307.274,271.315H192.945c-0.806,0-1.46-0.654-1.46-1.46
			s0.654-1.459,1.46-1.459h114.329c0.807,0,1.46,0.653,1.46,1.459S308.081,271.315,307.274,271.315"/>
		<path clip-path="url(#XMLID_17_)" fill="#EF9426" d="M263.031,252.513c0,2.624-2.127,4.751-4.751,4.751s-4.752-2.127-4.752-4.751
			s2.128-4.751,4.752-4.751S263.031,249.889,263.031,252.513"/>
		<path clip-path="url(#XMLID_17_)" fill="#FFFFFF" d="M286.089,252.513c0,2.624-2.127,4.751-4.752,4.751
			c-2.623,0-4.751-2.127-4.751-4.751s2.128-4.751,4.751-4.751C283.962,247.762,286.089,249.889,286.089,252.513"/>
		<path clip-path="url(#XMLID_17_)" fill="#EF9426" d="M309.146,252.513c0,2.624-2.128,4.751-4.752,4.751s-4.751-2.127-4.751-4.751
			s2.127-4.751,4.751-4.751S309.146,249.889,309.146,252.513"/>
		<rect x="183.777" y="197.648" clip-path="url(#XMLID_17_)" fill="#D7CDCD" width="130.383" height="2.397"/>
	</g>
	<text transform="matrix(1 0 0 1 148.9805 416.9805)"><tspan x="0" y="0" fill="#FFFFFF" font-family="'Montserrat-Black'" font-size="17">UNDER </tspan><tspan x="62.804" y="0" fill="#FFFFFF" font-family="'Montserrat-Black'" font-size="17">C</tspan><tspan x="73.99" y="0" fill="#FFFFFF" font-family="'Montserrat-Black'" font-size="17">ONSTRUCTION!</tspan></text>
	<text transform="matrix(1 0 0 1 148.9805 418.9805)"><tspan x="0" y="0" fill="#26A0DD" font-family="'Montserrat-Black'" font-size="17">UNDER </tspan><tspan x="62.804" y="0" fill="#26A0DD" font-family="'Montserrat-Black'" font-size="17">C</tspan><tspan x="73.99" y="0" fill="#26A0DD" font-family="'Montserrat-Black'" font-size="17">ONSTRUCTION!</tspan></text>
	<text transform="matrix(1 0 0 1 148.9805 416.9805)"><tspan x="0" y="0" fill="#FFFFFF" font-family="'Montserrat-Black'" font-size="17">UNDER </tspan><tspan x="62.804" y="0" fill="#FFFFFF" font-family="'Montserrat-Black'" font-size="17">C</tspan><tspan x="73.99" y="0" fill="#FFFFFF" font-family="'Montserrat-Black'" font-size="17">ONSTRUCTION!</tspan></text>
	<text transform="matrix(1 0 0 1 162.4058 397.9805)" fill="#FFFFFF" font-family="'CaviarDreams'" font-size="28">CodeWizzard</text>
	<text transform="matrix(1 0 0 1 165.2861 442.0039)"><tspan x="0" y="0" fill="#1A96C6" font-family="'Montserrat-Regular'" font-size="16.2399">WE’LL BE B</tspan><tspan x="90.199" y="0" fill="#1A96C6" font-family="'Montserrat-Regular'" font-size="16.2399">A</tspan><tspan x="101.651" y="0" fill="#1A96C6" font-family="'Montserrat-Regular'" font-size="16.2399">CK S</tspan><tspan x="137.303" y="0" fill="#1A96C6" font-family="'Montserrat-Regular'" font-size="16.2399">O</tspan><tspan x="148.593" y="0" fill="#1A96C6" font-family="'Montserrat-Regular'" font-size="16.2399">ON!</tspan></text>
	<g>
		<defs>
			<rect id="XMLID_9_" y="30.789" width="500" height="500"/>
		</defs>
		<clipPath id="XMLID_19_">
			<use xlink:href="#XMLID_9_" />
		</clipPath>
		<path clip-path="url(#XMLID_19_)" fill="#26A0DD" d="M465.04,361.233H38.959c-2.922,0-5.293-2.37-5.293-5.293
			c0-2.924,2.371-5.293,5.293-5.293H465.04c2.924,0,5.293,2.369,5.293,5.293C470.333,358.863,467.964,361.233,465.04,361.233"/>
		<circle clip-path="url(#XMLID_19_)" fill="none" stroke="#FFFFFF" stroke-miterlimit="10" cx="334.5" cy="167.539" r="2"/>
		<circle clip-path="url(#XMLID_19_)" fill="none" stroke="#FFFFFF" stroke-miterlimit="10" cx="152.5" cy="192.539" r="2"/>
		<circle clip-path="url(#XMLID_19_)" fill="none" stroke="#FFFFFF" stroke-miterlimit="10" cx="202.5" cy="285.539" r="2"/>
		<circle clip-path="url(#XMLID_19_)" fill="none" stroke="#FFFFFF" stroke-miterlimit="10" cx="337.5" cy="223.539" r="2"/>
		
			<line clip-path="url(#XMLID_19_)" fill="none" stroke="#FFFFFF" stroke-linecap="round" stroke-linejoin="round" stroke-miterlimit="10" x1="280.5" y1="155.664" x2="285.688" y2="160.851"/>
		
			<line clip-path="url(#XMLID_19_)" fill="none" stroke="#FFFFFF" stroke-linecap="round" stroke-linejoin="round" stroke-miterlimit="10" x1="285.688" y1="155.664" x2="280.5" y2="160.851"/>
		
			<line clip-path="url(#XMLID_19_)" fill="none" stroke="#FFFFFF" stroke-linecap="round" stroke-linejoin="round" stroke-miterlimit="10" x1="179.333" y1="152.498" x2="182.854" y2="156.019"/>
		
			<line clip-path="url(#XMLID_19_)" fill="none" stroke="#FFFFFF" stroke-linecap="round" stroke-linejoin="round" stroke-miterlimit="10" x1="182.854" y1="152.498" x2="179.333" y2="156.019"/>
		
			<line clip-path="url(#XMLID_19_)" fill="none" stroke="#FFFFFF" stroke-linecap="round" stroke-linejoin="round" stroke-miterlimit="10" x1="155.333" y1="258.498" x2="158.854" y2="262.019"/>
		
			<line clip-path="url(#XMLID_19_)" fill="none" stroke="#FFFFFF" stroke-linecap="round" stroke-linejoin="round" stroke-miterlimit="10" x1="158.854" y1="258.498" x2="155.333" y2="262.019"/>
		
			<line clip-path="url(#XMLID_19_)" fill="none" stroke="#FFFFFF" stroke-linecap="round" stroke-linejoin="round" stroke-miterlimit="10" x1="322.333" y1="267.498" x2="325.854" y2="271.019"/>
		
			<line clip-path="url(#XMLID_19_)" fill="none" stroke="#FFFFFF" stroke-linecap="round" stroke-linejoin="round" stroke-miterlimit="10" x1="325.854" y1="267.498" x2="322.334" y2="271.019"/>
		
			<line clip-path="url(#XMLID_19_)" fill="none" stroke="#FFFFFF" stroke-linecap="round" stroke-linejoin="round" stroke-miterlimit="10" x1="236.5" y1="113.789" x2="236.5" y2="143.789"/>
		
			<line clip-path="url(#XMLID_19_)" fill="none" stroke="#FFFFFF" stroke-linecap="round" stroke-linejoin="round" stroke-miterlimit="10" x1="232.5" y1="125.789" x2="232.5" y2="143.789"/>
		
			<line clip-path="url(#XMLID_19_)" fill="none" stroke="#FFFFFF" stroke-linecap="round" stroke-linejoin="round" stroke-miterlimit="10" x1="268.5" y1="106.789" x2="268.5" y2="143.789"/>
		
			<line clip-path="url(#XMLID_19_)" fill="none" stroke="#FFFFFF" stroke-linecap="round" stroke-linejoin="round" stroke-miterlimit="10" x1="272.5" y1="130.789" x2="272.5" y2="143.789"/>
	</g>
</g>
<g>
	<defs>
		<rect id="XMLID_11_" x="185.617" y="181.236" width="119.414" height="171.276"/>
	</defs>
	<clipPath id="XMLID_20_">
		<use xlink:href="#XMLID_11_" />
	</clipPath>
	<path clip-path="url(#XMLID_20_)" fill="#4E483C" d="M293.179,248.581c0,2.422-1.35,4.708-1.704,7.028
		c-0.364,2.384,0.223,4.98-0.488,7.224c-0.725,2.283-2.699,4.031-3.753,6.14c-1.063,2.13-1.291,4.789-2.657,6.709
		c-1.371,1.93-3.776,2.969-5.421,4.654c-1.646,1.682-2.66,4.143-4.546,5.547c-1.879,1.397-4.477,1.631-6.559,2.719
		c-2.061,1.076-3.77,3.098-6,3.838c-2.191,0.73-4.73,0.126-7.059,0.501c-2.267,0.364-4.501,1.743-6.868,1.743
		c-2.369,0-4.6-1.379-6.868-1.743c-2.328-0.375-4.866,0.229-7.058-0.501c-2.231-0.74-3.939-2.762-6-3.838
		c-2.083-1.088-4.68-1.322-6.557-2.719c-1.887-1.404-2.903-3.865-4.548-5.549c-1.645-1.683-4.049-2.722-5.422-4.652
		c-1.366-1.92-1.593-4.579-2.657-6.711c-1.052-2.108-3.026-3.854-3.751-6.138c-0.711-2.243-0.122-4.84-0.489-7.224
		c-0.355-2.32-1.704-4.605-1.704-7.028c0-2.421,1.348-4.707,1.704-7.028c0.367-2.38-0.222-4.978,0.489-7.22
		c0.725-2.285,2.699-4.032,3.751-6.141c1.064-2.131,1.292-4.79,2.657-6.709c1.374-1.93,3.777-2.97,5.423-4.654
		c1.644-1.683,2.66-4.143,4.547-5.547c1.876-1.398,4.475-1.631,6.557-2.72c2.061-1.076,3.769-3.096,6-3.838
		c2.192-0.728,4.73-0.126,7.058-0.501c2.268-0.364,4.5-1.743,6.868-1.743c2.367,0,4.601,1.379,6.868,1.743
		c2.328,0.375,4.867-0.227,7.059,0.501c2.23,0.742,3.939,2.762,6,3.838c2.082,1.089,4.681,1.322,6.559,2.72
		c1.886,1.405,2.9,3.865,4.546,5.547c1.646,1.684,4.05,2.724,5.421,4.654c1.367,1.919,1.594,4.579,2.657,6.709
		c1.054,2.109,3.028,3.856,3.753,6.141c0.711,2.242,0.124,4.839,0.488,7.22C291.829,243.874,293.179,246.16,293.179,248.581"/>
	<path clip-path="url(#XMLID_20_)" fill="#F9F9F2" d="M289.36,248.581c0,23.304-18.461,42.194-41.237,42.194
		c-22.771,0-41.233-18.89-41.233-42.194c0-23.304,18.462-42.194,41.233-42.194C270.899,206.387,289.36,225.277,289.36,248.581"/>
	<path clip-path="url(#XMLID_20_)" fill="#423A2F" d="M248.192,288.005c-21.413,0-38.833-17.827-38.833-39.737
		c0-21.911,17.42-39.737,38.833-39.737c21.412,0,38.833,17.826,38.833,39.737C287.025,270.178,269.604,288.005,248.192,288.005
		 M248.192,209.131c-21.09,0-38.249,17.556-38.249,39.137c0,21.582,17.158,39.137,38.249,39.137
		c21.089,0,38.248-17.556,38.248-39.137C286.439,226.687,269.281,209.131,248.192,209.131"/>
	<path clip-path="url(#XMLID_20_)" fill="#4E483C" d="M273.294,248.913c0,14.135-11.298,25.594-25.236,25.594
		c-13.938,0-25.237-11.458-25.237-25.594c0-14.135,11.298-25.593,25.237-25.593C261.996,223.319,273.294,234.778,273.294,248.913"/>
	<polygon clip-path="url(#XMLID_20_)" fill="#4E483C" points="249.084,213.362 250.021,216.287 253.053,216.287 250.599,218.095 
		251.537,221.019 249.084,219.21 246.63,221.019 247.568,218.095 245.114,216.287 248.146,216.287 	"/>
	<polygon clip-path="url(#XMLID_20_)" fill="#4E483C" points="235.91,275.89 236.544,277.87 238.597,277.87 236.936,279.094 
		237.57,281.074 235.91,279.851 234.248,281.074 234.883,279.094 233.221,277.87 235.275,277.87 	"/>
	<polygon clip-path="url(#XMLID_20_)" fill="#4E483C" points="262.716,275.89 263.351,277.87 265.404,277.87 263.742,279.094 
		264.377,281.074 262.716,279.851 261.055,281.074 261.689,279.094 260.027,277.87 262.082,277.87 	"/>
	<polygon clip-path="url(#XMLID_20_)" fill="#4E483C" points="225.444,225.049 226.071,226.336 227.471,226.542 226.458,227.543 
		226.697,228.957 225.444,228.29 224.193,228.957 224.433,227.543 223.42,226.542 224.819,226.336 	"/>
	<polygon clip-path="url(#XMLID_20_)" fill="#4E483C" points="269.856,225.066 270.478,226.342 271.865,226.546 270.861,227.539 
		271.099,228.941 269.856,228.279 268.614,228.941 268.852,227.539 267.848,226.546 269.236,226.342 	"/>
	<path clip-path="url(#XMLID_20_)" fill="#F9F9F2" d="M217.219,247.631c0,1.29-1.031,2.335-2.302,2.335s-2.302-1.045-2.302-2.335
		c0-1.289,1.031-2.334,2.302-2.334S217.219,246.342,217.219,247.631"/>
	<path clip-path="url(#XMLID_20_)" fill="#F9F9F2" d="M282.469,248.268c0,1.29-1.03,2.334-2.303,2.334
		c-1.271,0-2.301-1.045-2.301-2.334c0-1.289,1.029-2.335,2.301-2.335C281.438,245.933,282.469,246.979,282.469,248.268"/>
</g>
<g>
	<defs>
		<path id="XMLID_13_" d="M222.956,248.913c0,14.135,11.298,25.594,25.236,25.594l0,0c13.939,0,25.237-11.458,25.237-25.594l0,0
			c0-14.135-11.298-25.593-25.237-25.593l0,0C234.254,223.319,222.956,234.778,222.956,248.913"/>
	</defs>
	<clipPath id="XMLID_21_">
		<use xlink:href="#XMLID_13_" />
	</clipPath>
	<path clip-path="url(#XMLID_21_)" fill="#F9F9F2" d="M243.222,248.237l0.272-0.417c0.128-0.197-0.104-0.433-0.298-0.302
		l-0.412,0.275c-0.405,0.271-0.933,0.27-1.341-0.004l-0.414-0.279c-0.195-0.131-0.425,0.103-0.295,0.3l0.275,0.419
		c0.271,0.413,0.273,0.949,0.005,1.36l-0.272,0.417c-0.128,0.197,0.104,0.433,0.298,0.302l0.411-0.275
		c0.405-0.272,0.933-0.27,1.34,0.005l0.414,0.278c0.195,0.132,0.426-0.102,0.296-0.3l-0.275-0.419
		C242.956,249.184,242.954,248.648,243.222,248.237"/>
	<path clip-path="url(#XMLID_21_)" fill="#F9F9F2" d="M255.117,259.336l-0.135-0.667c-0.064-0.315-0.51-0.315-0.574,0l-0.135,0.667
		c-0.133,0.658-0.643,1.172-1.297,1.305l-0.662,0.136c-0.313,0.063-0.313,0.514,0,0.578l0.662,0.136
		c0.654,0.133,1.164,0.647,1.297,1.305l0.135,0.667c0.064,0.315,0.51,0.315,0.574,0l0.135-0.667
		c0.133-0.658,0.643-1.172,1.297-1.305l0.662-0.136c0.313-0.063,0.313-0.514,0-0.578l-0.662-0.136
		C255.76,260.508,255.25,259.994,255.117,259.336"/>
	<path clip-path="url(#XMLID_21_)" fill="#EE8C32" d="M251.034,254.635l-0.447,0.454l0.566,0.574
		c0.024,0.025,0.046,0.051,0.066,0.079c0.251,0.33,0.2,0.811-0.129,1.074l-0.633,0.506l0.072,19.12l-1.27,1.289l-1.99-0.007
		l-1.28-1.298l-0.072-19.12l-0.637-0.511c-0.359-0.288-0.392-0.827-0.071-1.153l0.561-0.57l-0.451-0.457
		c-0.339-0.344-0.288-0.914,0.106-1.185l0.292-0.201l4.906,0.018l0.294,0.203C251.315,253.724,251.371,254.293,251.034,254.635"/>
	<path clip-path="url(#XMLID_21_)" fill="#D77623" d="M245.719,253.229l-0.292,0.2c-0.394,0.272-0.445,0.841-0.106,1.186
		l0.451,0.457l-0.562,0.57c-0.321,0.326-0.288,0.865,0.071,1.153l0.637,0.51l0.072,19.121l1.28,1.298l1.304,0.004l-1.279-1.297
		l-0.07-18.398l1.509-0.419l-0.717-0.144c-0.522-0.104-1.012-0.334-1.431-0.67c-0.359-0.288-0.392-0.828-0.071-1.153l0.562-0.57
		l-0.451-0.457c-0.339-0.345-0.288-0.914,0.106-1.185l0.292-0.2L245.719,253.229z"/>
	<polygon clip-path="url(#XMLID_21_)" fill="#89C9B3" points="245.059,250.354 245.719,253.229 248.178,254.675 250.625,253.247 
		251.264,250.375 248.15,247.615 	"/>
	<polygon clip-path="url(#XMLID_21_)" fill="#C0E0D7" points="248.178,254.675 250.625,253.247 251.264,250.376 248.166,251.662 	
		"/>
	<polygon clip-path="url(#XMLID_21_)" fill="#57AA8E" points="245.059,250.354 248.166,251.662 248.15,247.615 	"/>
	<path clip-path="url(#XMLID_21_)" fill="#D77623" d="M249.641,264.145l0.05,13.148l-0.431,0.437l-0.432-0.001l-0.052-13.586
		c-0.001-0.242,0.192-0.438,0.431-0.437C249.446,263.706,249.641,263.903,249.641,264.145"/>
	<path clip-path="url(#XMLID_21_)" fill="#D77623" d="M250.587,255.089l0.566,0.574c0.024,0.025,0.046,0.051,0.066,0.079
		l-2.004,0.22L250.587,255.089z"/>
	<path clip-path="url(#XMLID_21_)" fill="#FBD9C7" d="M252.588,264.973c-0.814-0.468-1.983,0.203-1.918,0.604
		c-0.314-0.821-0.482-1.975-0.798-2.796c-0.422-1.102-1.061-2.166-1.483-3.268c-0.146-0.381-0.98-1.517-1.568-1.213
		c-0.924,0.477-0.541,1.845-0.326,2.261c0.326,0.635,0.578,1.297,0.806,2.254c0.424,1.779,0.509,3.793,0.407,3.811
		c-0.156,0.028-0.904-1.436-1.591-1.924c-0.478-0.339-1.191-0.533-1.489-0.481c-1.008,0.179-1.28,1.099-1.313,1.188
		c-0.226,0.623-0.107,1.47-0.315,1.43c-0.67-0.128-1.354,0.299-1.615,0.831c-0.354,0.723,0.803,1.876,0.696,1.945
		c-0.122,0.079-1.284-0.716-1.931,0.657c-0.185,0.392-0.156,0.853-0.019,1.26c0.695,2.063,0.247,3.551,1.496,6.381
		c0.23,0.521,1.824,1.911,1.983,2.473c0.401,1.413,0.669,2.913,0.845,4.179c0.011,0.011,0.021,0.021,0.032,0.03
		c0.007-0.001,0.153,0.102,0.168,0.109c0.012,0.006,0.178,0.088,0.181,0.096c0.076,0.028,0.154,0.055,0.231,0.077
		c0.702,0.208,1.559,0.158,2.361,0.044c1.229-0.178,2.625-0.412,3.674-1.028c0.432-0.253,0.764-0.604,1.081-0.97
		c0-0.014,0-0.026,0-0.039c-0.183-0.586-0.356-1.189-0.487-1.777c-0.096-0.435,0.09-1.201,0.029-1.573
		c-0.1-0.612-0.432-1.194-0.307-1.479c0.803-1.825,1.509-4.053,1.389-6.187c-0.017-0.324-0.252-0.748-0.313-1.265
		c-0.162-1.435-0.219-3.372-0.11-4.201C252.409,266.232,252.814,265.104,252.588,264.973"/>
	<path clip-path="url(#XMLID_21_)" fill="#D8B099" d="M243.001,266.839c0.391,0.115,0.563,0.26,0.847,0.428
		c0.157,0.093,0.474,0.384,0.492,0.28c0.036-0.206-0.235-0.441-0.391-0.639c-0.196-0.249-0.749-0.684-0.697-1.282
		C243.113,266.211,243.185,266.875,243.001,266.839"/>
	<path clip-path="url(#XMLID_21_)" fill="#FBD9C7" d="M247.096,259.557c0.277,0.109,0.682,0.08,0.936-0.068
		c0.144-0.084,0.179-0.205,0.151-0.342c-0.32-0.47-0.913-1.079-1.362-0.847c-0.197,0.102-0.335,0.245-0.428,0.411
		C246.549,259.017,246.723,259.411,247.096,259.557"/>
	<path clip-path="url(#XMLID_21_)" fill="#D8B099" d="M252.785,271.699c-0.066-0.297-0.238-0.663-0.289-1.095
		c-0.162-1.435-0.219-3.372-0.11-4.201c0.023-0.17,0.429-1.299,0.202-1.43c-0.814-0.468-1.983,0.203-1.918,0.604
		c-0.021-0.058,0.168,0.757,0.607,2.031C251.848,269.267,252.715,271.516,252.785,271.699"/>
	<path clip-path="url(#XMLID_21_)" fill="#F9F9F2" d="M254.076,239.974v-2.044h-1.415c-0.126-0.503-0.333-0.973-0.608-1.396
		l1.02-1.012l-1.456-1.446l-1.037,1.029c-0.422-0.257-0.89-0.448-1.388-0.56v-1.467h-2.06v1.467
		c-0.498,0.112-0.966,0.303-1.389,0.56l-1.037-1.029l-1.456,1.446l1.02,1.012c-0.275,0.423-0.483,0.893-0.607,1.396h-1.417v2.044
		h1.38c0.111,0.524,0.31,1.015,0.583,1.457l-0.958,0.952l1.456,1.445l0.941-0.935c0.448,0.288,0.948,0.5,1.484,0.622v1.31h2.06
		v-1.31c0.535-0.122,1.036-0.334,1.483-0.622l0.941,0.935l1.456-1.445l-0.959-0.952c0.273-0.442,0.473-0.933,0.584-1.457H254.076z"
		/>
	<g clip-path="url(#XMLID_21_)">
		<text transform="matrix(1.018 0 0 1 244.0166 241.1064)" fill="#4E483C" font-family="'Cursivestandardbold'" font-size="5.7161">&lt;/&gt;</text>
	</g>
	<path clip-path="url(#XMLID_21_)" fill="#F9C9AE" d="M240.499,272.542c-0.013-0.878,0.128-1.854,1.131-2.25
		c0.39-0.153,0.855-0.147,1.254-0.193c0.167-0.019,0.375-0.322,0.403-0.45c0.157-0.73,0.451-1.303,1.415-1.376
		c0.327-0.025,0.588-0.163,0.84-0.36c0.244-0.191,0.581-0.58,0.865-0.73c0.293-0.156,1.862,0.377,2.221,0.329
		c0.429-0.059,0.857-0.259,1.32-0.219c0.684,0.059,1.137,1.079,1.293,1.49c0.139,0.37,1.297,2.265,1.545,2.917
		c-0.066-0.297-0.238-0.663-0.289-1.095c-0.162-1.435-0.219-3.372-0.11-4.201c0.023-0.169,0.429-1.299,0.202-1.43
		c-0.814-0.468-1.983,0.203-1.918,0.604c-0.314-0.821-0.482-1.975-0.798-2.796c-0.422-1.102-1.061-2.166-1.483-3.268
		c-0.146-0.382-0.98-1.517-1.568-1.213c-0.924,0.477-0.541,1.845-0.326,2.261c0.326,0.635,0.578,1.297,0.806,2.254
		c0.424,1.779,0.509,3.793,0.407,3.811c-0.156,0.028-0.904-1.436-1.591-1.923c-0.478-0.34-1.191-0.534-1.489-0.481
		c-1.008,0.178-1.28,1.098-1.313,1.188c-0.226,0.623-0.107,1.47-0.315,1.43c-0.67-0.128-1.354,0.299-1.615,0.832
		c-0.354,0.722,0.803,1.874,0.696,1.944c-0.121,0.079-1.284-0.716-1.931,0.657c-0.185,0.392-0.157,0.853-0.02,1.26
		c0.196,0.582,0.301,1.118,0.378,1.65C240.506,272.969,240.502,272.756,240.499,272.542"/>
</g>
</svg>
